<svg viewBox="0 8 100 62" xmlns="http://www.w3.org/2000/svg" aria-label="Doghouse Media">
  
  <path d="M 14 56 C 14 36, 30 22, 48 22 L 48 14 L 56 24 L 62 14 L 64 26 C 78 30, 90 38, 96 50 L 92 54 L 96 58 C 88 64, 70 62, 56 60 C 44 64, 22 66, 14 56 Z" fill="#0F1417"></path>
  
  <path d="M 22 32 C 36 24, 60 26, 70 34 L 67 42 C 56 36, 38 36, 28 42 Z" fill="#BD1C30"></path>
  
  <path d="M 14 36 L 6 32 L 12 40 L 4 42 Z" fill="#BD1C30"></path>
  
  <path d="M 56 56 L 60 52 L 64 56 L 68 52 L 72 56 L 76 52 L 80 56 L 84 52 L 88 56 L 92 52 L 94 54 L 94 58 L 56 60 Z" fill="#FAF7F0"></path>
  
  <circle cx="92" cy="50" r="3" fill="#BD1C30"></circle>
  
  <circle cx="50" cy="40" r="2.5" fill="#FAF7F0"></circle>
</svg>